<?xml version="1.0" encoding="UTF-8" standalone="no"?>
<svg width="611px" height="610px" viewBox="0 0 611 610" version="1.1" xmlns="http://www.w3.org/2000/svg" xmlns:xlink="http://www.w3.org/1999/xlink" xmlns:sketch="http://www.bohemiancoding.com/sketch/ns">
    <!-- Generator: Sketch 3.3.2 (12043) - http://www.bohemiancoding.com/sketch -->
    <title>cart-icon</title>
    <desc>Created with Sketch.</desc>
    <defs></defs>
    <g id="Page-1" stroke="none" stroke-width="1" fill="none" fill-rule="evenodd" sketch:type="MSPage">
        <g id="Artboard-1" sketch:type="MSArtboardGroup" transform="translate(0.000000, -1.000000)" fill="#2A2A5F">
            <path d="M484.095463,247.437975 C484.906793,242.557951 483.688811,237.88128 480.435503,233.407914 C477.180222,229.341207 472.912253,226.901195 467.623651,226.087887 L221.796363,198.637738 L218.746397,168.747577 C218.339735,165.087549 216.916417,161.732531 214.476444,158.682515 C212.036471,155.632501 209.189836,153.700824 205.936529,152.887487 L151.647128,135.807399 C146.767181,134.180725 142.090566,134.587393 137.617293,137.027407 C133.143998,139.467419 130.094042,143.127437 128.467394,148.007451 C126.840745,152.887487 127.247396,157.564176 129.687369,162.037523 C132.127343,166.510868 135.787312,169.560884 140.667258,171.187579 L182.756794,184.607637 L198.006626,334.668397 L188.246724,388.348689 C187.840071,390.788702 187.941727,393.330371 188.55172,395.971715 C189.161714,398.615071 190.483366,400.953426 192.516686,402.986769 C196.176646,407.460106 200.853261,409.696793 206.546522,409.696793 L435.903991,409.696793 C441.19062,409.696793 445.663874,407.968442 449.323863,404.511767 C452.983853,401.055093 454.813802,396.683394 454.813802,391.396681 C454.813802,386.109998 452.983823,381.740302 449.323863,378.282631 C445.663903,374.82496 441.19062,373.098581 435.903991,373.098581 L228.506289,373.098581 L232.776242,348.698478 L451.153813,348.698478 C455.625123,348.698478 459.488394,347.275128 462.743705,344.428456 C465.996982,341.583769 468.030303,337.92375 468.843637,333.448381 L484.095463,247.437955 L484.095463,247.437975 L484.095463,247.437975 Z M402.356365,477.40914 C410.489608,477.40914 417.30119,474.664096 422.791149,469.174078 C428.281109,463.68406 431.026048,456.872369 431.026048,448.739025 C431.026048,440.60568 428.281079,433.793929 422.791149,428.303911 C417.30122,422.813893 410.489608,420.06885 402.356365,420.06885 C394.223121,420.06885 387.511191,422.813893 382.226607,428.303911 C376.942022,433.793929 374.296674,440.60562 374.296674,448.739025 C374.296674,456.872429 376.939988,463.68406 382.226607,469.174078 C387.513224,474.664096 394.223121,477.40914 402.356365,477.40914 L402.356365,477.40914 L402.356365,477.40914 Z M234.608195,477.40914 C242.741439,477.40914 249.55303,474.664096 255.04297,469.174078 C260.532919,463.68405 263.277889,456.872369 263.277889,448.739025 C263.277889,440.60568 260.532919,433.793929 255.04297,428.303911 C249.55303,422.813884 242.741439,420.06885 234.608195,420.06885 C226.474952,420.06885 219.663361,422.813893 214.173422,428.303911 C208.683481,433.793929 205.938522,440.60562 205.938522,448.739025 C205.938522,456.872429 208.683491,463.68406 214.173422,469.174078 C219.663351,474.664096 226.474952,477.40914 234.608195,477.40914 L234.608195,477.40914 L234.608195,477.40914 Z M305.977408,0.996747041 C347.863603,0.996747041 387.411509,9.02845438 424.621099,25.0918691 C461.830688,41.1552738 494.160341,62.9120506 521.610009,90.3621996 C549.059676,117.812348 570.816172,150.142502 586.879299,187.352691 C602.942425,224.56288 610.974043,264.111423 610.974043,305.998292 C610.974043,334.058444 607.314083,361.101904 599.994173,387.128702 C592.672252,413.153527 582.406034,437.451944 569.189504,460.024101 C555.972973,482.594196 540.113158,503.130977 521.610009,521.634364 C503.108893,540.13782 482.570469,555.999895 460.000708,569.214625 C437.428965,582.431368 413.132892,592.699753 387.105506,600.019791 C361.080134,607.339818 334.037109,610.999837 305.977408,610.999837 C277.917707,610.999837 250.874682,607.339818 224.848303,600.019791 C198.821924,592.69775 174.523839,582.431368 151.954087,569.214625 C129.384336,555.997881 108.847907,540.137811 90.3447675,521.634364 C71.8416383,503.13298 55.9818133,482.594196 42.7652925,460.024101 C29.5487717,437.451934 19.2805516,413.155501 11.9606324,387.128702 C4.64072314,361.101904 0.980763525,334.058444 0.980763525,305.998292 C0.980763525,277.93814 4.64072314,250.894679 11.9606424,224.867881 C19.2805616,198.841083 29.5487817,174.542606 42.7653024,151.972491 C55.9818233,129.402377 71.8416483,108.865607 90.3447775,90.3621797 C108.847907,71.8587527 129.384357,55.9986723 151.954097,42.7819487 C174.523848,29.5652051 198.821914,19.2968297 224.848293,11.9767827 C250.874673,4.65675561 277.917698,0.996737074 305.977398,0.996737074 L305.977408,0.996747041 L305.977408,0.996747041 Z" id="cart-icon" sketch:type="MSShapeGroup"></path>
        </g>
    </g>
</svg>